<?xml version="1.0" encoding="UTF-8" standalone="no"?>
<!-- Created with Inkscape (http://www.inkscape.org/) -->

<svg
   width="168.80417mm"
   height="168.53958mm"
   viewBox="0 0 168.80417 168.53958"
   version="1.1"
   id="svg1"
   xml:space="preserve"
   inkscape:version="1.4 (86a8ad7, 2024-10-11)"
   sodipodi:docname="LORCAMERSFOORT_logo.svg"
   xmlns:inkscape="http://www.inkscape.org/namespaces/inkscape"
   xmlns:sodipodi="http://sodipodi.sourceforge.net/DTD/sodipodi-0.dtd"
   xmlns="http://www.w3.org/2000/svg"
   xmlns:svg="http://www.w3.org/2000/svg"><sodipodi:namedview
     id="namedview1"
     pagecolor="#ffffff"
     bordercolor="#000000"
     borderopacity="0.25"
     inkscape:showpageshadow="2"
     inkscape:pageopacity="0.0"
     inkscape:pagecheckerboard="0"
     inkscape:deskcolor="#d1d1d1"
     inkscape:document-units="mm"
     inkscape:zoom="1.0267829"
     inkscape:cx="229.8441"
     inkscape:cy="289.73992"
     inkscape:window-width="1920"
     inkscape:window-height="1017"
     inkscape:window-x="-8"
     inkscape:window-y="-8"
     inkscape:window-maximized="1"
     inkscape:current-layer="layer1" /><defs
     id="defs1" /><g
     inkscape:label="Laag 1"
     inkscape:groupmode="layer"
     id="layer1"><g
       id="g3"
       transform="matrix(5.5621652,0,0,5.5621652,-224.01755,-676.63943)"><g
         id="g2"
         inkscape:label="Arch"
         style="display:inline"
         transform="matrix(0.19832414,0,0,0.19832414,34.536134,109.98277)"><path
           style="fill:#eb9c22;fill-opacity:1;stroke:none;stroke-width:0.492001;stroke-linecap:round;stroke-linejoin:round;stroke-dasharray:none;stroke-opacity:1"
           d="m 60.880084,144.78205 c 0,0 0.08401,-20.59634 11.594952,-32.87467 11.510941,-12.278342 21.204801,-13.200126 21.204801,-13.200126 0,0 -11.568462,0.478681 -22.887553,13.524416 -11.319092,13.04573 -9.9122,32.55038 -9.9122,32.55038 z"
           id="path1-5"
           sodipodi:nodetypes="cscsc" /><path
           style="fill:#eb9c22;fill-opacity:1;stroke:none;stroke-width:0.492001;stroke-linecap:round;stroke-linejoin:round;stroke-dasharray:none;stroke-opacity:1"
           d="m 60.368486,146.18894 c 0,0 -0.447646,-7.73791 1.215044,-15.41187 1.662691,-7.67396 5.179923,-13.81313 5.179923,-13.81313 0,0 -4.699344,6.69534 -6.331015,16.30717 -1.152767,6.7907 -0.06395,12.91783 -0.06395,12.91783 z"
           id="path2"
           sodipodi:nodetypes="cscscc" /><path
           id="path3"
           style="fill:#eb9c22;fill-opacity:1;stroke:none;stroke-width:0.492001;stroke-linecap:round;stroke-linejoin:round;stroke-dasharray:none;stroke-opacity:1"
           d="m 103.05367,97.822453 c 0.012,0.170004 0.0354,0.33955 0.0791,0.492476 0.0584,0.204444 0.21294,0.370749 0.26252,0.486275 0.36915,-9.61e-4 0.64045,-0.01444 1.01441,-0.0041 l 0.29249,-0.555004 0.24287,0.573608 c 0.20764,0.0085 0.37183,0.01157 0.58085,0.02377 8.24439,0.481029 16.37781,3.029792 16.37781,3.029792 0,0 -8.63733,-4.15068 -18.85001,-4.046784 z m -10.181293,2.413287 c 0.135285,-0.409893 0.216863,-0.723657 0.284606,-0.924489 -9.614398,2.735449 -15.010322,7.996409 -15.010322,7.996409 0,0 5.840718,-4.63613 14.725716,-7.07192 z"
           sodipodi:nodetypes="cccscccccccccc" /><path
           style="display:inline;fill:#eb9c22;fill-opacity:1;stroke:none;stroke-width:0.492001;stroke-linecap:round;stroke-linejoin:round;stroke-dasharray:none;stroke-opacity:1"
           d="m 138.38708,118.88243 c 0,0 2.77197,5.16966 4.66832,11.67082 1.35805,4.65571 2.23825,12.11846 2.23825,12.11846 0,0 -0.11023,-5.93938 -1.21505,-11.15921 -1.38877,-6.56138 -5.69152,-12.63007 -5.69152,-12.63007 z"
           id="path4"
           sodipodi:nodetypes="cscsc" /><path
           d="m 125.45603,105.43328 c 0.37558,0.22739 0.82302,0.52141 1.20084,0.76592 0.37782,0.24451 0.75646,0.49811 1.1343,0.76016 0.37783,0.26205 0.75503,0.53287 1.13068,0.81287 0.37564,0.28001 0.74962,0.56875 1.12086,0.86713 0.37124,0.29838 0.73971,0.6063 1.10432,0.92346 0.36462,0.31717 0.72529,0.64394 1.08107,0.9803 0.35579,0.33637 0.70636,0.6822 1.0511,1.03818 0.34474,0.35599 0.68345,0.72211 1.01493,1.09813 0.21353,0.24222 0.42365,0.48608 0.62993,0.73122 0.20628,0.24514 0.40865,0.49159 0.60772,0.73897 0.39813,0.49477 0.78236,0.99325 1.15187,1.49293 0.3695,0.49968 0.72439,1.00047 1.06556,1.49965 0.34118,0.49918 0.6682,0.99657 0.98134,1.48984 0.31314,0.49326 0.61273,0.98257 0.89814,1.46451 0.2854,0.48193 0.55697,0.95642 0.81493,1.42161 0.25797,0.4652 0.50195,0.92071 0.73278,1.36375 0.23083,0.44303 0.44816,0.87386 0.65215,1.28932 0.20399,0.41547 0.39461,0.8159 0.57206,1.19838 0.17745,0.38248 0.34179,0.7468 0.49299,1.09089 0.30241,0.68817 0.55268,1.29418 0.7519,1.79627 0.19921,0.50209 0.34755,0.90036 0.44596,1.17306 0.0984,0.2727 0.14676,0.42013 0.14676,0.42013 0,0 -0.0495,-0.1987 -0.15451,-0.56173 -0.10499,-0.36302 -0.26504,-0.89068 -0.48576,-1.54926 -0.11036,-0.32928 -0.23594,-0.69106 -0.37723,-1.08158 -0.1413,-0.39053 -0.29875,-0.80983 -0.47233,-1.25316 -0.17358,-0.44332 -0.3633,-0.91067 -0.57051,-1.39836 -0.2072,-0.48769 -0.43169,-0.99567 -0.67386,-1.51929 -0.24216,-0.52362 -0.50184,-1.06273 -0.78031,-1.61385 -0.27847,-0.55113 -0.57582,-1.11395 -0.89194,-1.68414 -0.15805,-0.28509 -0.32062,-0.57213 -0.48834,-0.86041 -0.16772,-0.28828 -0.34025,-0.57776 -0.5178,-0.86817 -0.17754,-0.2904 -0.36022,-0.58184 -0.54777,-0.87333 -0.18754,-0.29148 -0.38003,-0.58337 -0.57774,-0.87488 -0.19771,-0.29151 -0.4007,-0.58286 -0.60875,-0.87333 -0.20804,-0.29048 -0.42121,-0.57978 -0.63975,-0.86817 -0.21854,-0.28838 -0.44258,-0.57568 -0.67179,-0.86093 -0.22921,-0.28524 -0.46379,-0.5685 -0.70384,-0.84956 -0.24004,-0.28105 -0.48534,-0.5598 -0.73639,-0.8356 -0.25105,-0.2758 -0.50776,-0.54854 -0.76998,-0.81804 -0.26221,-0.2695 -0.53001,-0.53575 -0.80356,-0.79789 -0.27356,-0.26213 -0.55262,-0.52038 -0.83768,-0.77411 -0.25887,-0.23041 -0.51978,-0.45488 -0.78238,-0.67386 -0.2626,-0.21898 -0.52715,-0.43244 -0.79272,-0.64027 -0.26557,-0.20783 -0.53217,-0.41025 -0.79995,-0.6072 -0.26777,-0.19694 -0.53641,-0.38831 -0.80563,-0.57464 -0.26922,-0.18633 -0.53936,-0.36764 -0.80926,-0.54364 -0.26989,-0.17599 -0.53995,-0.3467 -0.80977,-0.51263 -0.26981,-0.16593 -0.53924,-0.32703 -0.80822,-0.48317 -0.26897,-0.15614 -0.67755,-0.3427 -0.94492,-0.48932 z"
           style="display:inline;fill:#eb9c22;fill-opacity:1;stroke-width:0.492001;stroke-linecap:round;stroke-linejoin:round"
           id="path10"
           sodipodi:nodetypes="cssssssssssssssssssssscssssssssssssssssssssssssssscc" /><path
           d="m 113.2551,100.20939 c 0,0 0.22987,0.0552 0.64854,0.17415 0.20934,0.0595 0.46596,0.13472 0.7643,0.22686 0.29833,0.0921 0.63855,0.20137 1.01544,0.32814 0.37688,0.12677 0.79059,0.27124 1.23558,0.4346 0.44499,0.16336 0.92103,0.34534 1.42369,0.54725 0.50265,0.20191 1.03195,0.42369 1.58181,0.66611 0.54987,0.24243 1.07347,0.4356 1.66011,0.72049 l 0.0296,-0.63117 c -0.3799,-0.15856 -0.69476,-0.28443 -1.05981,-0.42465 -0.36505,-0.14022 -0.72172,-0.27142 -1.06919,-0.39429 -0.4541,-0.16058 -0.89233,-0.3069 -1.31103,-0.43976 -0.41869,-0.13287 -0.81809,-0.25233 -1.19527,-0.35967 -0.37719,-0.10734 -0.73186,-0.2023 -1.06144,-0.28629 -0.32957,-0.084 -0.63416,-0.15731 -0.91002,-0.22014 -0.55172,-0.12566 -0.98958,-0.211 -1.28984,-0.2651 -0.30027,-0.0541 -0.46251,-0.0765 -0.46251,-0.0765 z"
           style="display:inline;fill:#eb9c22;fill-opacity:1;stroke-width:0.492001;stroke-linecap:round;stroke-linejoin:round"
           id="path7"
           sodipodi:nodetypes="cscssssccssssssscc" /></g><g
         id="path6-5"
         style="display:inline;fill:#eb9c22;fill-opacity:1"
         inkscape:label="Lore Symbol"
         transform="matrix(0.19832414,0,0,0.19832414,34.536134,109.98277)"><path
           id="path5"
           style="color:#000000;fill:#eb9c22;fill-opacity:1;stroke-linecap:round;stroke-linejoin:round;-inkscape-stroke:none"
           d="m 123.47257,97.507743 c -0.23167,-0.0028 -0.46427,0.02831 -0.66611,0.119373 -0.20184,0.09106 -0.39879,0.282438 -0.40411,0.542602 v 0.0021 c 0,0 -0.0923,4.713342 -0.56431,10.131162 -0.23589,2.70777 -0.58667,5.61087 -1.04903,8.14834 -0.46236,2.53748 -1.04456,4.71541 -1.69912,5.93349 -1.32097,2.45819 -3.07082,3.9522 -4.68964,4.87205 0.40512,-0.14433 0.79505,-0.29007 1.12707,-0.43408 1.94102,-0.84189 3.95197,-2.80612 5.09788,-4.44314 0.61604,-0.88007 1.25983,-2.16899 1.72909,-3.18223 0.50289,-2.19868 0.84985,-4.73803 1.13016,-7.2931 0.48778,4.44975 1.15956,8.88758 2.54868,11.47269 1.8568,3.45531 4.4676,5.17422 6.69365,6.15621 -1.49054,0.45016 -3.15018,1.11302 -4.78317,2.37918 -1.19272,0.9248 -2.08492,1.94102 -2.77864,2.97863 0.46837,-0.51593 1.07674,-1.08765 1.8681,-1.70635 2.57576,-2.01378 5.02708,-2.24898 7.80521,-2.34818 0.62421,-0.0223 1.06254,-0.0135 1.37821,0.0119 0.48061,-0.0476 0.77205,-0.0496 0.77205,-0.0496 0.005,1.6e-4 0.0103,1.6e-4 0.0155,0 0.25477,-0.0158 0.4472,-0.198 0.54674,-0.39429 0.0995,-0.1963 0.13835,-0.42091 0.13901,-0.64492 6.6e-4,-0.22402 -0.0355,-0.44627 -0.12506,-0.64027 -0.0896,-0.194 -0.25932,-0.38435 -0.50798,-0.40824 -0.004,-7.6e-4 -0.008,-0.001 -0.0119,-0.002 0,0 -5.90176,-0.24407 -9.16791,-6.3221 -0.65455,-1.21803 -1.23675,-3.39807 -1.69912,-5.93555 -0.46236,-2.53747 -0.81314,-5.44109 -1.04903,-8.14886 -0.47109,-5.40747 -0.5642,-10.105555 -0.56431,-10.111004 v -0.0041 -0.01137 c -0.002,-0.01137 -0.005,-0.02259 -0.008,-0.03359 -0.0212,-0.256681 -0.22421,-0.418648 -0.42375,-0.505912 -0.19954,-0.08727 -0.42875,-0.125857 -0.66042,-0.128675 z m 1.08417,0.634587 c -0.002,-0.02258 -0.006,-0.04484 -0.014,-0.06615 -0.003,-0.0058 -0.004,-0.0098 -0.006,-0.01344 z m -2.6479,22.76709 c -0.93052,1.86152 -2.02728,3.42271 -2.85047,4.11241 -0.86529,0.72497 -3.60141,2.68931 -6.52467,3.22719 -0.39151,0.072 -0.71645,0.13006 -0.99994,0.17828 -0.97055,0.25078 -1.61385,0.28164 -1.61385,0.28164 -0.005,5e-4 -0.0104,10e-4 -0.0155,0.002 -0.26045,0.0291 -0.45836,0.2119 -0.55862,0.41599 -0.10025,0.2041 -0.13168,0.43454 -0.11937,0.66198 0.0123,0.22745 0.0668,0.4525 0.17983,0.64285 0.11303,0.19035 0.31245,0.36023 0.56638,0.3669 0.002,2e-5 0.004,2e-5 0.006,0 0,0 4.18655,-0.009 7.76541,2.76573 5.12497,3.9737 4.66018,10.03711 4.66018,10.03711 -3.6e-4,0.008 -3.6e-4,0.0155 0,0.0233 0.004,0.2623 0.20154,0.45793 0.40411,0.55087 0.20258,0.0929 0.43392,0.12628 0.66405,0.12712 0.23013,8.5e-4 0.45578,-0.0301 0.6506,-0.10335 0.0974,-0.0366 0.18979,-0.0843 0.26975,-0.15658 0.0794,-0.0717 0.15007,-0.18104 0.15762,-0.31161 v -5.2e-4 c 0.006,-0.0299 0.0155,-0.0595 0.0103,-0.0899 0.002,-0.013 0.002,-0.0262 0.002,-0.0393 0,0 -0.46473,-6.06341 4.66018,-10.03711 1.86551,-1.44646 3.88283,-2.12809 5.39967,-2.45722 -0.44952,0.0116 -0.92801,0.0467 -1.40456,0.12609 -1.55088,0.25848 -3.57188,0.42995 -5.92005,2.18282 -2.05465,1.53375 -2.83467,2.7184 -3.43494,3.93826 -0.001,0.003 -0.003,0.005 -0.004,0.008 -0.13662,0.33369 -0.26392,0.6649 -0.37466,0.9896 -0.72349,-2.121 -1.9375,-4.48254 -4.46122,-6.4394 -1.63298,-1.26617 -3.29268,-1.92902 -4.78317,-2.37918 2.22598,-0.98202 4.83696,-2.70101 6.69364,-6.15621 0.37465,-0.69718 0.6942,-1.53698 0.97514,-2.46755 z m 2.6417,22.82186 -0.0212,0.0873 c 0.0102,-0.0224 0.0138,-0.0353 0.0155,-0.0393 0.006,-0.0152 0.002,-0.0321 0.006,-0.0481 z" /></g><path
         id="path11"
         style="color:#000000;display:inline;fill:#eb9c22;fill-opacity:1;stroke-width:0.198324;stroke-linecap:round;stroke-linejoin:round;-inkscape-stroke:none"
         d="m 59.023724,129.32091 c -0.04595,-5.6e-4 -0.09208,0.006 -0.132105,0.0237 -0.04003,0.0181 -0.07909,0.056 -0.08015,0.10761 v 4.2e-4 c 0,0 -0.0183,0.93477 -0.111916,2.00925 -0.04678,0.53702 -0.116351,1.11277 -0.208048,1.61602 -0.0917,0.50324 -0.207162,0.93517 -0.336977,1.17675 -0.26198,0.48752 -0.609018,0.78382 -0.930069,0.96624 0.08035,-0.0286 0.157678,-0.0575 0.223525,-0.0861 0.384952,-0.16697 0.783771,-0.55653 1.011033,-0.88119 0.122176,-0.17454 0.249855,-0.43016 0.34292,-0.63111 0.09974,-0.43605 0.168546,-0.93966 0.224138,-1.4464 0.09674,0.8825 0.229969,1.76262 0.505465,2.27531 0.368248,0.68528 0.886034,1.02618 1.327514,1.22093 -0.295611,0.0893 -0.624757,0.22074 -0.94862,0.47185 -0.236545,0.18341 -0.41349,0.38495 -0.551071,0.59073 0.09289,-0.10232 0.213544,-0.2157 0.370489,-0.33841 0.510837,-0.39938 0.996993,-0.44602 1.547963,-0.4657 0.123796,-0.004 0.210727,-0.003 0.273332,0.002 0.09532,-0.009 0.153116,-0.01 0.153116,-0.01 9.92e-4,4e-5 0.002,4e-5 0.0031,0 0.05053,-0.003 0.08869,-0.0393 0.108432,-0.0782 0.01973,-0.0389 0.02744,-0.0835 0.02757,-0.12791 1.31e-4,-0.0444 -0.007,-0.0885 -0.0248,-0.12698 -0.01777,-0.0385 -0.05143,-0.0762 -0.100745,-0.081 -7.93e-4,-1.5e-4 -0.0016,-2e-4 -0.0024,-4e-4 0,0 -1.170461,-0.0484 -1.818219,-1.25382 -0.129813,-0.24157 -0.245277,-0.67392 -0.336976,-1.17717 -0.0917,-0.50324 -0.161266,-1.07909 -0.208048,-1.61611 -0.09343,-1.07243 -0.111895,-2.00418 -0.111917,-2.00526 v -8.1e-4 -0.002 c -3.96e-4,-0.002 -9.91e-4,-0.004 -0.0016,-0.007 -0.0042,-0.0509 -0.04447,-0.083 -0.08404,-0.10033 -0.03957,-0.0173 -0.08503,-0.025 -0.130977,-0.0255 z m 0.215017,0.12585 c -3.96e-4,-0.004 -0.0012,-0.009 -0.0028,-0.0131 -5.95e-4,-0.001 -7.93e-4,-0.002 -0.0012,-0.003 z m -0.525142,4.51526 c -0.184545,0.36919 -0.402059,0.67881 -0.565317,0.81559 -0.171608,0.14378 -0.714247,0.53336 -1.294,0.64003 -0.07765,0.0143 -0.142089,0.0258 -0.198312,0.0354 -0.192483,0.0497 -0.320065,0.0559 -0.320065,0.0559 -9.92e-4,1e-4 -0.0021,2e-4 -0.0031,3.9e-4 -0.05165,0.006 -0.0909,0.042 -0.110788,0.0825 -0.01988,0.0405 -0.02612,0.0862 -0.02367,0.13129 0.0024,0.0451 0.01325,0.0897 0.03566,0.12749 0.02242,0.0378 0.06197,0.0714 0.112327,0.0728 3.97e-4,0 7.94e-4,0 0.0012,0 0,0 0.830294,-0.002 1.540068,0.54851 1.016406,0.78808 0.924227,1.9906 0.924227,1.9906 -7.2e-5,0.002 -7.2e-5,0.003 0,0.005 7.93e-4,0.052 0.03997,0.0908 0.08014,0.10925 0.04018,0.0184 0.08606,0.025 0.131698,0.0252 0.04564,1.7e-4 0.09039,-0.006 0.129029,-0.0205 0.01932,-0.007 0.03764,-0.0167 0.0535,-0.0311 0.01575,-0.0142 0.02976,-0.0359 0.03126,-0.0618 v -1e-4 c 0.0012,-0.006 0.0031,-0.0118 0.002,-0.0178 3.96e-4,-0.003 3.96e-4,-0.005 3.96e-4,-0.008 0,0 -0.09217,-1.20252 0.924226,-1.9906 0.369975,-0.28687 0.770061,-0.42206 1.070887,-0.48733 -0.08915,0.002 -0.184047,0.009 -0.278559,0.025 -0.307579,0.0513 -0.70839,0.0853 -1.174089,0.4329 -0.407487,0.30418 -0.562184,0.53913 -0.681232,0.78105 -1.98e-4,6e-4 -5.95e-4,0.001 -7.93e-4,0.002 -0.02709,0.0662 -0.05234,0.13187 -0.0743,0.19626 -0.143486,-0.42064 -0.384253,-0.88899 -0.884768,-1.27709 -0.323859,-0.25111 -0.653018,-0.38257 -0.948618,-0.47184 0.441466,-0.19476 0.959286,-0.53568 1.32751,-1.22093 0.0743,-0.13827 0.137677,-0.30482 0.193394,-0.48937 z m 0.523913,4.52613 -0.0042,0.0173 c 0.002,-0.004 0.0027,-0.007 0.0031,-0.008 0.0012,-0.003 3.97e-4,-0.006 0.0012,-0.01 z" /><g
         id="g14"
         inkscape:label="Arch"
         transform="matrix(0.19832414,0,0,0.19832414,34.536134,109.98277)"
         style="display:inline"><path
           style="fill:#eb9c22;fill-opacity:1;stroke:none;stroke-width:0.492001;stroke-linecap:round;stroke-linejoin:round;stroke-dasharray:none;stroke-opacity:1"
           d="m 60.880084,144.78205 c 0,0 0.08401,-20.59634 11.594952,-32.87467 11.510941,-12.278342 21.204801,-13.200126 21.204801,-13.200126 0,0 -11.568462,0.478681 -22.887553,13.524416 -11.319092,13.04573 -9.9122,32.55038 -9.9122,32.55038 z"
           id="path6"
           sodipodi:nodetypes="cscsc" /><path
           style="fill:#eb9c22;fill-opacity:1;stroke:none;stroke-width:0.492001;stroke-linecap:round;stroke-linejoin:round;stroke-dasharray:none;stroke-opacity:1"
           d="m 60.368486,146.18894 c 0,0 -0.447646,-7.73791 1.215044,-15.41187 1.662691,-7.67396 5.179923,-13.81313 5.179923,-13.81313 0,0 -4.699344,6.69534 -6.331015,16.30717 -1.152767,6.7907 -0.06395,12.91783 -0.06395,12.91783 z"
           id="path8"
           sodipodi:nodetypes="cscscc" /><path
           id="path9"
           style="fill:#eb9c22;fill-opacity:1;stroke:none;stroke-width:0.492001;stroke-linecap:round;stroke-linejoin:round;stroke-dasharray:none;stroke-opacity:1"
           d="m 103.05367,97.822453 c 0.012,0.170004 0.0354,0.33955 0.0791,0.492476 0.0584,0.204444 0.21294,0.370749 0.26252,0.486275 0.36915,-9.61e-4 0.64045,-0.01444 1.01441,-0.0041 l 0.29249,-0.555004 0.24287,0.573608 c 0.20764,0.0085 0.37183,0.01157 0.58085,0.02377 8.24439,0.481029 16.37781,3.029792 16.37781,3.029792 0,0 -8.63733,-4.15068 -18.85001,-4.046784 z m -10.181293,2.413287 c 0.135285,-0.409893 0.216863,-0.723657 0.284606,-0.924489 -9.614398,2.735449 -15.010322,7.996409 -15.010322,7.996409 0,0 5.840718,-4.63613 14.725716,-7.07192 z"
           sodipodi:nodetypes="cccscccccccccc" /><path
           style="display:inline;fill:#eb9c22;fill-opacity:1;stroke:none;stroke-width:0.492001;stroke-linecap:round;stroke-linejoin:round;stroke-dasharray:none;stroke-opacity:1"
           d="m 138.38708,118.88243 c 0,0 2.77197,5.16966 4.66832,11.67082 1.35805,4.65571 2.23825,12.11846 2.23825,12.11846 0,0 -0.11023,-5.93938 -1.21505,-11.15921 -1.38877,-6.56138 -5.69152,-12.63007 -5.69152,-12.63007 z"
           id="path12"
           sodipodi:nodetypes="cscsc" /><path
           d="m 125.45603,105.43328 c 0.37558,0.22739 0.82302,0.52141 1.20084,0.76592 0.37782,0.24451 0.75646,0.49811 1.1343,0.76016 0.37783,0.26205 0.75503,0.53287 1.13068,0.81287 0.37564,0.28001 0.74962,0.56875 1.12086,0.86713 0.37124,0.29838 0.73971,0.6063 1.10432,0.92346 0.36462,0.31717 0.72529,0.64394 1.08107,0.9803 0.35579,0.33637 0.70636,0.6822 1.0511,1.03818 0.34474,0.35599 0.68345,0.72211 1.01493,1.09813 0.21353,0.24222 0.42365,0.48608 0.62993,0.73122 0.20628,0.24514 0.40865,0.49159 0.60772,0.73897 0.39813,0.49477 0.78236,0.99325 1.15187,1.49293 0.3695,0.49968 0.72439,1.00047 1.06556,1.49965 0.34118,0.49918 0.6682,0.99657 0.98134,1.48984 0.31314,0.49326 0.61273,0.98257 0.89814,1.46451 0.2854,0.48193 0.55697,0.95642 0.81493,1.42161 0.25797,0.4652 0.50195,0.92071 0.73278,1.36375 0.23083,0.44303 0.44816,0.87386 0.65215,1.28932 0.20399,0.41547 0.39461,0.8159 0.57206,1.19838 0.17745,0.38248 0.34179,0.7468 0.49299,1.09089 0.30241,0.68817 0.55268,1.29418 0.7519,1.79627 0.19921,0.50209 0.34755,0.90036 0.44596,1.17306 0.0984,0.2727 0.14676,0.42013 0.14676,0.42013 0,0 -0.0495,-0.1987 -0.15451,-0.56173 -0.10499,-0.36302 -0.26504,-0.89068 -0.48576,-1.54926 -0.11036,-0.32928 -0.23594,-0.69106 -0.37723,-1.08158 -0.1413,-0.39053 -0.29875,-0.80983 -0.47233,-1.25316 -0.17358,-0.44332 -0.3633,-0.91067 -0.57051,-1.39836 -0.2072,-0.48769 -0.43169,-0.99567 -0.67386,-1.51929 -0.24216,-0.52362 -0.50184,-1.06273 -0.78031,-1.61385 -0.27847,-0.55113 -0.57582,-1.11395 -0.89194,-1.68414 -0.15805,-0.28509 -0.32062,-0.57213 -0.48834,-0.86041 -0.16772,-0.28828 -0.34025,-0.57776 -0.5178,-0.86817 -0.17754,-0.2904 -0.36022,-0.58184 -0.54777,-0.87333 -0.18754,-0.29148 -0.38003,-0.58337 -0.57774,-0.87488 -0.19771,-0.29151 -0.4007,-0.58286 -0.60875,-0.87333 -0.20804,-0.29048 -0.42121,-0.57978 -0.63975,-0.86817 -0.21854,-0.28838 -0.44258,-0.57568 -0.67179,-0.86093 -0.22921,-0.28524 -0.46379,-0.5685 -0.70384,-0.84956 -0.24004,-0.28105 -0.48534,-0.5598 -0.73639,-0.8356 -0.25105,-0.2758 -0.50776,-0.54854 -0.76998,-0.81804 -0.26221,-0.2695 -0.53001,-0.53575 -0.80356,-0.79789 -0.27356,-0.26213 -0.55262,-0.52038 -0.83768,-0.77411 -0.25887,-0.23041 -0.51978,-0.45488 -0.78238,-0.67386 -0.2626,-0.21898 -0.52715,-0.43244 -0.79272,-0.64027 -0.26557,-0.20783 -0.53217,-0.41025 -0.79995,-0.6072 -0.26777,-0.19694 -0.53641,-0.38831 -0.80563,-0.57464 -0.26922,-0.18633 -0.53936,-0.36764 -0.80926,-0.54364 -0.26989,-0.17599 -0.53995,-0.3467 -0.80977,-0.51263 -0.26981,-0.16593 -0.53924,-0.32703 -0.80822,-0.48317 -0.26897,-0.15614 -0.67755,-0.3427 -0.94492,-0.48932 z"
           style="display:inline;fill:#eb9c22;fill-opacity:1;stroke-width:0.492001;stroke-linecap:round;stroke-linejoin:round"
           id="path13"
           sodipodi:nodetypes="cssssssssssssssssssssscssssssssssssssssssssssssssscc" /><path
           d="m 113.2551,100.20939 c 0,0 0.22987,0.0552 0.64854,0.17415 0.20934,0.0595 0.46596,0.13472 0.7643,0.22686 0.29833,0.0921 0.63855,0.20137 1.01544,0.32814 0.37688,0.12677 0.79059,0.27124 1.23558,0.4346 0.44499,0.16336 0.92103,0.34534 1.42369,0.54725 0.50265,0.20191 1.03195,0.42369 1.58181,0.66611 0.54987,0.24243 1.07347,0.4356 1.66011,0.72049 l 0.0296,-0.63117 c -0.3799,-0.15856 -0.69476,-0.28443 -1.05981,-0.42465 -0.36505,-0.14022 -0.72172,-0.27142 -1.06919,-0.39429 -0.4541,-0.16058 -0.89233,-0.3069 -1.31103,-0.43976 -0.41869,-0.13287 -0.81809,-0.25233 -1.19527,-0.35967 -0.37719,-0.10734 -0.73186,-0.2023 -1.06144,-0.28629 -0.32957,-0.084 -0.63416,-0.15731 -0.91002,-0.22014 -0.55172,-0.12566 -0.98958,-0.211 -1.28984,-0.2651 -0.30027,-0.0541 -0.46251,-0.0765 -0.46251,-0.0765 z"
           style="display:inline;fill:#eb9c22;fill-opacity:1;stroke-width:0.492001;stroke-linecap:round;stroke-linejoin:round"
           id="path14"
           sodipodi:nodetypes="cscssssccssssssscc" /></g><g
         id="g15"
         style="display:inline;fill:#eb9c22;fill-opacity:1"
         inkscape:label="Lore Symbol"
         transform="matrix(0.19832414,0,0,0.19832414,34.536134,109.98277)"><path
           id="path15"
           style="color:#000000;fill:#eb9c22;fill-opacity:1;stroke-linecap:round;stroke-linejoin:round;-inkscape-stroke:none"
           d="m 123.47257,97.507743 c -0.23167,-0.0028 -0.46427,0.02831 -0.66611,0.119373 -0.20184,0.09106 -0.39879,0.282438 -0.40411,0.542602 v 0.0021 c 0,0 -0.0923,4.713342 -0.56431,10.131162 -0.23589,2.70777 -0.58667,5.61087 -1.04903,8.14834 -0.46236,2.53748 -1.04456,4.71541 -1.69912,5.93349 -1.32097,2.45819 -3.07082,3.9522 -4.68964,4.87205 0.40512,-0.14433 0.79505,-0.29007 1.12707,-0.43408 1.94102,-0.84189 3.95197,-2.80612 5.09788,-4.44314 0.61604,-0.88007 1.25983,-2.16899 1.72909,-3.18223 0.50289,-2.19868 0.84985,-4.73803 1.13016,-7.2931 0.48778,4.44975 1.15956,8.88758 2.54868,11.47269 1.8568,3.45531 4.4676,5.17422 6.69365,6.15621 -1.49054,0.45016 -3.15018,1.11302 -4.78317,2.37918 -1.19272,0.9248 -2.08492,1.94102 -2.77864,2.97863 0.46837,-0.51593 1.07674,-1.08765 1.8681,-1.70635 2.57576,-2.01378 5.02708,-2.24898 7.80521,-2.34818 0.62421,-0.0223 1.06254,-0.0135 1.37821,0.0119 0.48061,-0.0476 0.77205,-0.0496 0.77205,-0.0496 0.005,1.6e-4 0.0103,1.6e-4 0.0155,0 0.25477,-0.0158 0.4472,-0.198 0.54674,-0.39429 0.0995,-0.1963 0.13835,-0.42091 0.13901,-0.64492 6.6e-4,-0.22402 -0.0355,-0.44627 -0.12506,-0.64027 -0.0896,-0.194 -0.25932,-0.38435 -0.50798,-0.40824 -0.004,-7.6e-4 -0.008,-0.001 -0.0119,-0.002 0,0 -5.90176,-0.24407 -9.16791,-6.3221 -0.65455,-1.21803 -1.23675,-3.39807 -1.69912,-5.93555 -0.46236,-2.53747 -0.81314,-5.44109 -1.04903,-8.14886 -0.47109,-5.40747 -0.5642,-10.105555 -0.56431,-10.111004 v -0.0041 -0.01137 c -0.002,-0.01137 -0.005,-0.02259 -0.008,-0.03359 -0.0212,-0.256681 -0.22421,-0.418648 -0.42375,-0.505912 -0.19954,-0.08727 -0.42875,-0.125857 -0.66042,-0.128675 z m 1.08417,0.634587 c -0.002,-0.02258 -0.006,-0.04484 -0.014,-0.06615 -0.003,-0.0058 -0.004,-0.0098 -0.006,-0.01344 z m -2.6479,22.76709 c -0.93052,1.86152 -2.02728,3.42271 -2.85047,4.11241 -0.86529,0.72497 -3.60141,2.68931 -6.52467,3.22719 -0.39151,0.072 -0.71645,0.13006 -0.99994,0.17828 -0.97055,0.25078 -1.61385,0.28164 -1.61385,0.28164 -0.005,5e-4 -0.0104,10e-4 -0.0155,0.002 -0.26045,0.0291 -0.45836,0.2119 -0.55862,0.41599 -0.10025,0.2041 -0.13168,0.43454 -0.11937,0.66198 0.0123,0.22745 0.0668,0.4525 0.17983,0.64285 0.11303,0.19035 0.31245,0.36023 0.56638,0.3669 0.002,2e-5 0.004,2e-5 0.006,0 0,0 4.18655,-0.009 7.76541,2.76573 5.12497,3.9737 4.66018,10.03711 4.66018,10.03711 -3.6e-4,0.008 -3.6e-4,0.0155 0,0.0233 0.004,0.2623 0.20154,0.45793 0.40411,0.55087 0.20258,0.0929 0.43392,0.12628 0.66405,0.12712 0.23013,8.5e-4 0.45578,-0.0301 0.6506,-0.10335 0.0974,-0.0366 0.18979,-0.0843 0.26975,-0.15658 0.0794,-0.0717 0.15007,-0.18104 0.15762,-0.31161 v -5.2e-4 c 0.006,-0.0299 0.0155,-0.0595 0.0103,-0.0899 0.002,-0.013 0.002,-0.0262 0.002,-0.0393 0,0 -0.46473,-6.06341 4.66018,-10.03711 1.86551,-1.44646 3.88283,-2.12809 5.39967,-2.45722 -0.44952,0.0116 -0.92801,0.0467 -1.40456,0.12609 -1.55088,0.25848 -3.57188,0.42995 -5.92005,2.18282 -2.05465,1.53375 -2.83467,2.7184 -3.43494,3.93826 -0.001,0.003 -0.003,0.005 -0.004,0.008 -0.13662,0.33369 -0.26392,0.6649 -0.37466,0.9896 -0.72349,-2.121 -1.9375,-4.48254 -4.46122,-6.4394 -1.63298,-1.26617 -3.29268,-1.92902 -4.78317,-2.37918 2.22598,-0.98202 4.83696,-2.70101 6.69364,-6.15621 0.37465,-0.69718 0.6942,-1.53698 0.97514,-2.46755 z m 2.6417,22.82186 -0.0212,0.0873 c 0.0102,-0.0224 0.0138,-0.0353 0.0155,-0.0393 0.006,-0.0152 0.002,-0.0321 0.006,-0.0481 z" /></g><path
         d="m 76.861224,151.37708 0.09354,-4.25897 -0.470223,-0.67132 -0.470223,-0.67135 h 0.470223 0.470223 v -4.51594 -4.51595 l -0.455496,-0.2549 -0.455494,-0.25492 2.110881,-3.91346 2.11088,-3.91347 0.006,-0.98171 0.006,-0.9817 h -0.553781 -0.553783 v -0.45309 -0.45309 h 0.704863 0.704815 l 7.17e-4,1.4348 7.16e-4,1.43479 2.232139,3.98254 2.232139,3.98254 -0.420477,0.16135 -0.420477,0.16134 v 3.03959 h 6.041263 6.041262 v -1.4953 -1.49531 l -0.424159,-0.24155 -0.42416,-0.24156 2.312052,-4.31118 2.312056,-4.31118 2.29251,4.74502 0.277,3.61181 1.36416,0.49125 -0.45994,0.25739 v 4.51595 16.62004 10.8527 l -8.36626,-2.47892 -0.695627,2.47892 -0.0045,-4.90852 -0.0045,-4.90853 -0.373126,-0.72604 -0.373126,-0.72604 -0.796167,-0.59094 -0.796167,-0.59095 -1.405485,-0.15842 -1.603923,-7.66597 -1.475452,0.45005 -0.615555,8.0899 -0.50493,0.85479 -0.504932,0.85478 v 5.01293 5.01296 l -1.256872,-0.14032 0.05272,-16.93152 z m 3.114175,-13.30426 v -0.45309 h -0.453095 -0.453095 v 0.45309 0.4531 h 0.453095 0.453095 z m 2.185179,-0.0181 v -0.45309 h -0.453095 -0.453095 v 0.45309 0.4531 h 0.453095 0.453095 z m 17.280536,0.0851 v -0.45309 h -0.45309 -0.4531 v 0.45309 0.4531 h 0.4531 0.45309 z m 2.185176,-0.0181 v -0.45309 h -0.45309 -0.4531 v 0.45309 0.4531 h 0.4531 0.45309 z m -1.717906,-9.66865 0.006,-0.98171 0.006,-0.9817 h -0.55379 -0.55378 v -0.45309 -0.45309 h 0.70486 0.704816 l 7.2e-4,1.4348 7.1e-4,1.43479"
         style="display:inline;fill:#eb9c22;fill-opacity:1;stroke-width:1.14166"
         id="path19"
         sodipodi:nodetypes="cccccccccccccccccccccccccccccccccccccccccccccccccccccccccccccccccccccccccccccccccccccccccccccccccccccccccccc"
         transform="matrix(0.19832414,0,0,0.19832414,32.797565,110.43829)" /><path
         style="display:inline;fill:#cf8614;fill-opacity:1;stroke-width:0.1;stroke-linecap:round;stroke-linejoin:round"
         d="m 75.182765,145.78385 h 2.245063 0.317167 l 0.871511,-5.28056 -0.06615,5.28056 h 2.666013 l 0.908045,-5.28056 -0.06615,5.28056 h 1.824117 0.140317 v -5.8933 l 1.37786,3.66109 h 9.332965 l 1.543481,-3.75463 v 7.01582 h 1.59025 l 0.46772,-5.19171 v 5.19171 h 2.853106 v 9.35444 l -10.564871,-0.24087 -2.182621,-9.69876 -2.019225,9.60296 -10.62563,-0.24226 0.143404,-4.29478 z"
         id="path20"
         sodipodi:nodetypes="cccccccccccccccccccccccccc"
         transform="matrix(0.19832414,0,0,0.19832414,32.797565,110.43829)" /><path
         style="display:inline;fill:#cf8614;fill-opacity:1;stroke-width:0.1;stroke-linecap:round;stroke-linejoin:round"
         d="m 85.940363,144.38065 2.595856,-3.71838 v -0.91206 h 0.491107 v 0.86528 h 0.304019 l 2.361994,3.20389 z"
         id="path21"
         transform="matrix(0.19832414,0,0,0.19832414,32.797565,110.43829)" /><path
         style="font-variation-settings:normal;display:inline;opacity:1;vector-effect:none;fill:#cf8614;fill-opacity:1;stroke-width:1.89812;stroke-linecap:butt;stroke-linejoin:miter;stroke-miterlimit:4;stroke-dasharray:none;stroke-dashoffset:0;stroke-opacity:1;-inkscape-stroke:none"
         d="m 100.77883,129.21478 -0.825416,4.24487 -0.0632,6.46696 -0.59933,7.33123 1.651696,-0.3164 0.60804,-16.11514 z"
         id="path22"
         sodipodi:nodetypes="ccccccc"
         transform="matrix(0.19832414,0,0,0.19832414,32.797565,110.43829)" /><path
         id="path28"
         style="baseline-shift:baseline;display:inline;overflow:visible;vector-effect:none;fill:#cf8614;enable-background:accumulate;stop-color:#000000;stop-opacity:1"
         d="m 102.21708,120.52684 h 11.17855 v 32.03893 h -11.17855 z"
         transform="matrix(0.19832414,0,0,0.19832414,32.797565,110.43829)" /><path
         id="path29"
         style="display:inline;fill:#eb9c22;fill-opacity:1;stroke-width:1.81861"
         d="m 108.25561,74.358458 c 0.039,0.198507 -0.051,0.362985 -0.25324,0.370835 -0.2022,0.0078 -0.0403,-0.664231 -0.25959,-0.660088 -0.21926,0.0041 -0.4261,0.217931 -0.40382,0.349021 0.0223,0.13109 0.15474,0.04357 0.26287,0.202075 0.10812,0.158508 0.11277,0.6389 0.2859,0.762537 0.17314,0.123638 0.46645,0.06473 0.46645,0.06473 0,0 0.3432,-0.004 0.56187,-0.517909 0.21866,-0.513894 0.0777,-0.821896 -0.10056,-1.031472 -0.17831,-0.209576 -0.85348,-0.01964 -0.85348,-0.01964 0,0 0.25461,0.2814 0.2936,0.479907 z m -1.05089,5.745344 c -0.14544,0.671096 -0.22903,1.116913 -0.58394,1.92443 h 2.99 c -0.4114,-0.743918 -0.5263,-1.28662 -0.58446,-1.92443 z m -0.36432,4.330485 c -0.75647,0.886719 -1.19952,1.699164 -1.17124,2.519439 0.0283,0.820276 0.76896,1.54692 0.97952,1.749551 0,0 -0.038,0.57852 -0.18497,1.101211 -0.14695,0.52269 -0.74624,1.684149 -0.74624,1.684149 l 2.42776,-0.02739 2.42777,-0.0279 c -0.68563,-0.983162 -0.95779,-1.643514 -1.02888,-2.73007 0,0 1.1504,-1.100702 0.9821,-1.890769 -0.16831,-0.790067 -0.34604,-1.593304 -1.15057,-2.378221 h -1.26762 z m -3.05471,9.114831 -1.57527,4.694656 -0.0178,6.236756 v 11.67429 l -0.32637,-1.05833 -0.39299,1.05833 v 10.89185 l -1.02371,6.81715 -0.0527,6.62699 -0.580836,7.40626 0.0806,23.14846 h 5.864756 v -5.06842 c 0,0 0.26637,-1.80836 2.11563,-1.82366 1.84927,-0.0153 2.21486,1.82366 2.21486,1.82366 v 5.06842 l 2.79273,-5.23848 3.43583,-17.90998 -0.38344,-7.40626 -0.0512,-6.32261 -1.23662,-7.05539 v -10.95799 l -0.31812,-1.05833 -0.35677,1.05833 v -11.67429 l -0.0331,-6.236756 -0.48428,-1.54639 -0.43588,1.54639 c -1.47346,-0.83406 -1.96681,-2.14328 -1.96681,-3.704677 h -2.88716 -2.88665 c -0.0381,1.234582 -0.0731,1.534247 -0.3712,2.324897 z m 5.41248,9.697012 v 6.91085 h -1.92336 v -6.91085 c 0,0 0.15225,-0.96903 0.96513,-0.96903 0.81289,0 0.95823,0.96903 0.95823,0.96903 z m -0.96947,7.25044 c 0.50819,-1e-5 0.92016,0.41197 0.92015,0.92015 1e-5,0.50819 -0.41196,0.92016 -0.92015,0.92015 -0.50819,10e-6 -0.92015,-0.41196 -0.92015,-0.92015 0,-0.50818 0.41196,-0.92016 0.92015,-0.92015 z m 0.96947,2.36765 v 2.15566 h -1.92336 v -2.15566 z m 2.69361,8.65203 c 0.86014,0 0.96221,0.8599 0.96221,0.8599 v 12.99146 h -1.92494 v -12.99146 c 0,0 0.1026,-0.8599 0.96273,-0.8599 z m -3.6711,0.0507 c 0.86014,0 0.96222,0.85989 0.96222,0.85989 v 12.99197 h -1.92443 v -12.99197 c 0,0 0.10208,-0.85989 0.96221,-0.85989 z m -3.90312,0.0202 c 0.86013,0 0.96273,0.8599 0.96273,0.8599 v 12.99197 h -1.92495 v -12.99197 c 0,0 0.10209,-0.8599 0.96222,-0.8599 z m 1.10949,19.17144 c 1.16276,-0.0192 1.29656,0.93534 1.29656,0.93534 v 6.73654 h -2.40605 v -6.73654 c 0,0 -0.0533,-0.91614 1.10949,-0.93534 z m 5.02192,0.0202 c 1.16276,-0.0192 1.29656,0.93535 1.29656,0.93535 v 6.73654 H 109.34 v -6.73654 c 0,0 -0.0538,-0.91615 1.10897,-0.93535 z m -2.43396,8.92659 c 1.70341,-0.009 2.0898,1.36116 2.0898,1.36116 v 5.78414 h -4.06953 v -5.78414 c 0,0 0.27633,-1.35216 1.97973,-1.36116 z m 4.52669,-46.44803 v 11.67336 h -1.92336 v -11.67336 c 0,0 0.15225,-0.96903 0.96514,-0.96903 0.81288,0 0.95822,0.96903 0.95822,0.96903 z m -6.90233,0.004 v 11.67336 h -1.92336 v -11.67336 c 0,0 0.15225,-0.96903 0.96514,-0.96903 0.81288,0 0.95822,0.96903 0.95822,0.96903 z"
         sodipodi:nodetypes="zzzzzzczzczcccccczczcccczccccccccccccccccsccccccccccccccccccccccczcssssscccccsccccssccccssccccssccccssccccssccccsccccscccccsc"
         transform="matrix(0.19832414,0,0,0.19832414,32.797565,110.43829)" /><path
         style="display:inline;fill:#eb9c22"
         d="m 107.94011,75.2051 v 1.240234 l -0.25976,0.519532 c 0,0 -0.24877,0.489478 -0.54492,0.808593 -0.13997,0.150819 -0.31073,0.256654 -0.46875,0.433594 -0.15803,0.176941 -0.28021,0.430609 -0.29297,0.802735 -0.0115,0.335094 0.053,0.592184 0.20312,0.8125 0.13174,0.193344 0.33569,0.37016 0.57422,0.58789 l -0.30859,1.439453 v 3.294922 h 0.38476 v -3.253906 l 0.34766,-1.607422 -0.082,-0.07617 c -0.29404,-0.270518 -0.48909,-0.445098 -0.5957,-0.601562 -0.10661,-0.156464 -0.14653,-0.296109 -0.13672,-0.582032 0.0104,-0.302742 0.0841,-0.434023 0.19531,-0.558593 0.11125,-0.12457 0.28448,-0.237439 0.46289,-0.429688 0.35368,-0.381109 0.60742,-0.896484 0.60742,-0.896484 l 0.30079,-0.601563 v -1.332031 z"
         id="path30"
         transform="matrix(0.19832414,0,0,0.19832414,32.797565,110.43829)" /><path
         style="display:inline;fill:#eb9c22"
         d="m 106.2741,91.125022 c -0.14446,0.0085 -0.26947,0.07154 -0.35547,0.154297 -0.086,0.08276 -0.13725,0.180233 -0.17187,0.269531 -0.0692,0.178596 -0.0742,0.345703 -0.0742,0.345703 v 0.0039 2.927735 h 0.38671 V 91.90236 c 5e-4,-0.0077 0.007,-0.108849 0.0469,-0.212891 0.0209,-0.05394 0.0499,-0.101799 0.0801,-0.130859 0.0298,-0.02863 0.0566,-0.04533 0.10938,-0.04883 0.0832,-0.004 0.11924,0.01404 0.15039,0.03906 0.0311,0.02502 0.0586,0.06678 0.0781,0.119141 0.039,0.104717 0.0371,0.226562 0.0371,0.226562 v 0.0039 3.212891 h 1.27539 V 91.92774 c 0.002,-0.01122 0.0242,-0.123334 0.084,-0.236328 0.0314,-0.05928 0.0718,-0.112397 0.10937,-0.142578 0.0376,-0.03018 0.0653,-0.042 0.11524,-0.03906 l 0.0137,0.002 0.0117,-0.002 c 0.0216,-0.0015 0.0357,0.0036 0.0684,0.0332 0.0327,0.02965 0.0721,0.08488 0.10351,0.146484 0.0604,0.118449 0.0875,0.236386 0.0898,0.246094 v 3.152344 h 1.27344 v -3.169922 c 0,0 0.0116,-0.120541 0.0586,-0.232422 0.0235,-0.05594 0.0549,-0.104632 0.0859,-0.132813 0.031,-0.02818 0.0554,-0.04297 0.10743,-0.04297 0.0521,0 0.0764,0.01479 0.10742,0.04297 0.031,0.02818 0.0624,0.07687 0.0859,0.132813 0.047,0.111877 0.0586,0.232422 0.0586,0.232422 v 2.955078 h 0.38477 v -2.978516 -0.0078 c 0,0 -0.0121,-0.171113 -0.0879,-0.351563 -0.0379,-0.09023 -0.0921,-0.188089 -0.18164,-0.269531 -0.0896,-0.08144 -0.22049,-0.140625 -0.36718,-0.140625 -0.14669,0 -0.27761,0.05918 -0.36719,0.140625 -0.0896,0.08144 -0.14375,0.179308 -0.18164,0.269531 -0.0758,0.180446 -0.0879,0.351563 -0.0879,0.351563 v 0.0078 2.808611 h -0.50391 v -2.822266 l -0.004,-0.02148 c 0,0 -0.0378,-0.170731 -0.12696,-0.345703 -0.0446,-0.08749 -0.10178,-0.18003 -0.1875,-0.257813 -0.0829,-0.07525 -0.20726,-0.132194 -0.34375,-0.126953 -0.14264,-0.0041 -0.27443,0.04463 -0.36719,0.119141 -0.0962,0.07725 -0.15948,0.173864 -0.20703,0.263672 -0.0951,0.179615 -0.12695,0.353515 -0.12695,0.353515 l -0.004,0.01953 v 2.841796 h -0.50195 v -2.824218 l -0.002,0.0078 c 0,0 0.0115,-0.183496 -0.0605,-0.376953 -0.036,-0.09673 -0.0947,-0.202748 -0.19727,-0.285156 -0.10259,-0.08241 -0.24776,-0.130781 -0.41016,-0.123047 h -0.002 z"
         id="path31"
         transform="matrix(0.19832414,0,0,0.19832414,32.797565,110.43829)" /><path
         style="display:inline;fill:#eb9c22"
         d="m 108.57293,77.013694 -0.34571,0.173828 c 0,0 0.25375,0.515376 0.60743,0.896484 0.17841,0.192245 0.35164,0.305117 0.46289,0.429688 0.11125,0.124571 0.1849,0.255845 0.19531,0.558594 0.01,0.285922 -0.0301,0.425566 -0.13672,0.582031 -0.10661,0.156464 -0.30166,0.331044 -0.5957,0.601562 l -0.082,0.07422 0.34766,1.609375 v 3.251953 h 0.38476 V 81.89846 l -0.31055,-1.4375 c 0.23966,-0.218765 0.44207,-0.395887 0.57422,-0.589843 0.15012,-0.220316 0.21657,-0.477406 0.20508,-0.8125 -0.0128,-0.372121 -0.13495,-0.625795 -0.29297,-0.802735 -0.15801,-0.176939 -0.32878,-0.282771 -0.46875,-0.433593 -0.29614,-0.319116 -0.54492,-0.808594 -0.54492,-0.808594 z"
         id="path32"
         transform="matrix(0.19832414,0,0,0.19832414,32.797565,110.43829)" /><path
         id="path33"
         style="baseline-shift:baseline;display:inline;overflow:visible;vector-effect:none;fill:#eb9c22;enable-background:accumulate;stop-color:#000000;stop-opacity:1"
         d="m 108.7184,76.888419 a 0.60803813,0.60803813 0 0 1 -0.60804,0.608038 0.60803813,0.60803813 0 0 1 -0.60803,-0.608038 0.60803813,0.60803813 0 0 1 0.60803,-0.608038 0.60803813,0.60803813 0 0 1 0.60804,0.608038 z"
         transform="matrix(0.19832414,0,0,0.19832414,32.797565,110.43829)" /><path
         style="display:inline;fill:#eb9c22"
         d="m 107.92449,77.011741 c 0,0 -0.006,0.418443 -0.0918,0.705078 -0.0265,0.08848 -0.16415,0.237928 -0.32227,0.447265 -0.15811,0.209338 -0.32065,0.498875 -0.33007,0.894532 -0.0189,0.791895 0.54687,1.390625 0.54687,1.390625 l 0.28516,-0.259766 c 0,0 -0.45953,-0.525884 -0.44532,-1.123047 0.007,-0.298874 0.11655,-0.488699 0.25196,-0.667969 0.1354,-0.179269 0.31209,-0.328064 0.38476,-0.570312 0.11245,-0.374825 0.10743,-0.816406 0.10743,-0.816406 z"
         id="path34"
         transform="matrix(0.19832414,0,0,0.19832414,32.797565,110.43829)" /><path
         style="display:inline;fill:#eb9c22"
         d="m 107.88543,76.945334 c 0,0 -0.005,0.441588 0.10742,0.816407 0.0727,0.242254 0.24936,0.391044 0.38476,0.570312 0.13541,0.179268 0.24486,0.3691 0.25196,0.667969 0.0142,0.597162 -0.44531,1.123047 -0.44531,1.123047 l 0.28515,0.259765 c 0,0 0.56574,-0.598729 0.54688,-1.390625 -0.009,-0.395661 -0.17196,-0.683239 -0.33008,-0.892578 -0.15812,-0.209338 -0.29768,-0.360744 -0.32422,-0.449218 -0.086,-0.286642 -0.0898,-0.705078 -0.0898,-0.705079 z"
         id="path35"
         transform="matrix(0.19832414,0,0,0.19832414,32.797565,110.43829)" /><path
         id="path36"
         style="display:inline;fill:#cf8614;fill-opacity:1;stroke-width:1.88556;-inkscape-stroke:none"
         d="m 115.91376,139.21647 c 0,0 -0.1483,-0.54473 -0.43702,-0.85288 -0.28872,-0.30815 -0.89269,-0.23069 -1.12243,0.14689 -0.22973,0.37759 -0.183,0.90207 -0.16367,1.84795 l -2.44511,3.57606 v 4.516 H 109.34 v -1.27176 l -1.69758,2.06758 -0.0305,0.50177 c 0.12829,-0.0197 0.25359,-0.0421 0.40308,-0.0429 1.70341,-0.009 2.0898,1.36116 2.0898,1.36116 v 4.70824 l 4.68292,0.11162 1.53272,-7.98918 -0.38344,-7.40626 z m -9.5927,11.26598 h -0.35348 l -0.0547,2.04037 h -0.52406 v -2.04037 h -2.84427 l -0.007,2.04037 h -0.81991 v -2.04037 h -1.892386 l 0.017,5.04827 6.192906,0.14727 v -4.6116 c 0,0 0.0652,-0.2794 0.28577,-0.58394 z"
         sodipodi:nodetypes="czzcccccccsccccccccccccccccccccc"
         transform="matrix(0.19832414,0,0,0.19832414,32.797565,110.43829)" /><path
         style="font-variation-settings:normal;display:inline;opacity:1;vector-effect:none;fill:#cf8614;fill-opacity:1;stroke-width:1.88556;stroke-linecap:butt;stroke-linejoin:miter;stroke-miterlimit:4;stroke-dasharray:none;stroke-dashoffset:0;stroke-opacity:1;-inkscape-stroke:none"
         d="m 130.25699,171.43835 -2.71279,0.0234 v -3.50791 c 0,0 -0.0321,-1.76464 -0.71725,-2.49352 -1.50157,-1.59731 -2.71467,-2.25914 -5.97994,-2.28252 -4.03691,-0.0289 -4.87892,0.40281 -4.87892,0.40281 l 2.78295,-1.33301 7.88111,0.14032 3.43775,1.73057 -0.35079,3.55468 z"
         id="path38"
         sodipodi:nodetypes="cccsscccccc"
         transform="matrix(0.19832414,0,0,0.19832414,32.797565,110.43829)" /><path
         id="path39"
         style="font-variation-settings:normal;display:inline;opacity:1;vector-effect:none;fill:#eb9c22;fill-opacity:1;stroke-width:1.88556;stroke-linecap:butt;stroke-linejoin:miter;stroke-miterlimit:4;stroke-dasharray:none;stroke-dashoffset:0;stroke-opacity:1;-inkscape-stroke:none;stop-color:#000000;stop-opacity:1"
         d="m 149.80527,131.62623 v 0.4532 0.45321 h 0.55398 0.55345 l -0.006,0.98133 -0.005,0.79168 h -0.15761 l -4.61838,10.65413 -1.38802,-1.92391 h -0.20516 v -1.22266 c 0.13862,-0.0415 0.23358,-0.16899 0.23358,-0.31368 2.3e-4,-0.14487 -0.0948,-0.27267 -0.23358,-0.31419 v -0.62167 h -0.18707 v 0.62218 c -0.13882,0.0413 -0.23403,0.16885 -0.23409,0.31368 6e-5,0.14483 0.0953,0.2724 0.23409,0.31368 v 1.22266 h -6.8156 v -1.10071 c 0.13861,-0.0415 0.23357,-0.16899 0.23357,-0.31367 2.3e-4,-0.14487 -0.0948,-0.27268 -0.23357,-0.3142 v -0.62166 h -0.18707 v 0.62218 c -0.13882,0.0413 -0.23403,0.16885 -0.2341,0.31368 7e-5,0.14483 0.0953,0.2724 0.2341,0.31367 v 1.10071 h -0.24753 l -3.52485,6.48591 -5.63997,-8.23102 h -0.86816 v -1.31362 c 0.13861,-0.0415 0.23358,-0.16899 0.23358,-0.31367 2.3e-4,-0.14488 -0.0948,-0.27268 -0.23358,-0.3142 v -0.62166 h -0.18707 v 0.62218 c -0.13882,0.0413 -0.23403,0.16885 -0.23409,0.31368 7e-5,0.14482 0.0953,0.27239 0.23409,0.31367 v 1.31362 l -11.77964,-0.001 v -1.43557 c 0.13861,-0.0415 0.23357,-0.16899 0.23357,-0.31367 2.3e-4,-0.14487 -0.0948,-0.27268 -0.23357,-0.3142 v -0.62166 h -0.18707 v 0.62218 c -0.13882,0.0413 -0.23403,0.16885 -0.2341,0.31368 7e-5,0.14483 0.0953,0.2724 0.2341,0.31367 v 1.43557 h -0.6718 l -6.01255,8.79275 v 1.18546 h -2.26291 v 1.49655 h -1.22938 v -1.49655 h -1.99523 v 1.49655 h -1.49707 v -1.49655 h -1.995226 v 1.49655 h -0.99787 v -1.49655 h -1.888771 v 1.49655 h -1.60352 v -1.49655 h -0.997872 v -2.15801 -2.15801 l -4.572331,-5.88853 h -0.03204 l -5.17e-4,-1.32188 -0.001,-1.43506 H 88.445546 87.74068 v 0.45321 0.4532 h 0.553971 0.553971 l -0.0062,0.98133 -0.0057,0.8692 h -0.06925 l -4.489648,6.14278 v 1.03301 1.03301 H 83.77863 83.180733 v 0.71882 0.85111 h -0.813904 -0.532267 v -0.52193 -1.048 H 80.627918 79.68844 v 0.99787 0.57206 H 78.861753 78.31605 v -0.57206 -0.99787 h -0.613399 -0.472323 v -0.97772 -0.97771 l -3.943428,-6.0508 h -0.318844 l -5.17e-4,-1.33635 -5.17e-4,-1.43454 h -0.704866 -0.704867 v 0.45269 0.4532 h 0.553455 0.553971 l -0.0062,0.98185 -0.0052,0.88315 h -0.364318 l -3.941362,5.76141 v 12.34705 12.09849 h 11.177612 11.487671 c 0,0 -0.0516,-0.99852 0,-1.62213 v -1.8712 c 0,0 0.129022,-0.84181 1.49655,-0.84181 1.367527,0 1.496549,0.84181 1.496549,0.84181 v 3.49333 h 0.965833 v -1.49759 -1.99574 c 0,0 0.260186,-0.85831 1.37511,-0.84181 1.456524,0.0216 1.518774,0.84181 1.518774,0.84181 v 1.5751 1.90169 l 7.989166,0.0165 h 7.85741 v -3.25665 c 0,0 0.0935,-1.80413 0.97513,-3.03961 1.30971,-1.8354 2.74118,-2.56486 6.56808,-2.62206 3.23352,-0.0484 5.15431,0.85237 6.43836,2.54248 0.94074,1.23866 0.93948,3.00912 0.93948,3.00912 v 3.36672 h 13.51546 13.30306 v -26.51312 l -4.06482,-10.65413 h -0.17053 l -0.001,-1.24436 -5.1e-4,-1.43506 h -0.70487 z m 0.79359,13.96657 h 0.49868 0.4992 v 1.24747 1.24695 h -0.4992 -0.49868 v -1.24695 z m -31.399,1.18496 h 1.74615 1.74614 v 1.24695 1.24747 h -1.74614 -1.74615 v -1.24747 z m -47.23381,2.45412 h 0.498677 0.498678 v 0.99787 0.99787 H 72.464727 71.96605 v -0.99787 z m 15.996956,0.0734 h 0.498678 0.499194 v 0.99787 0.99787 h -0.499194 -0.498678 v -0.99787 z m 48.725194,2.40295 h 0.74827 0.74828 v 0.99787 0.99787 h -0.74828 -0.74827 v -0.99787 z m 5.95984,0.0584 h 0.49868 0.49868 v 0.99788 0.99787 h -0.49868 -0.49868 v -0.99787 z m 5.48752,0 h 0.74828 0.74827 v 0.99788 0.99787 h -0.74827 -0.74828 v -0.99787 z m 5.16041,0.047 h 0.74827 0.74828 v 0.99736 0.99787 h -0.74828 -0.74827 v -0.99787 z m -72.771786,0.23254 c 1.390626,0.003 1.103735,0.54653 1.492415,0.55553 0.389838,0.009 0.321428,0.27698 0.321428,0.27698 v 2.24483 h -3.56154 v -2.24483 c 0,0 0.0039,-0.28195 0.279569,-0.27595 0.531435,0.0113 0.0775,-0.55956 1.468128,-0.55656 z m -8.558134,0.17932 h 0.498677 0.498678 v 0.49868 0.49919 H 72.464727 71.96605 v -0.49919 z m 15.996956,0.0729 h 0.498678 0.499194 v 0.4992 0.49868 h -0.499194 -0.498678 v -0.49868 z m -7.334436,3.91139 c 2.365957,-4.4e-4 3.135912,0.55525 3.64939,2.04226 v 6.98458 h -7.483264 v -6.98458 c 0.635145,-1.62612 1.467919,-2.04183 3.833874,-2.04226 z m 23.10608,3.53881 h 1.24695 1.24747 v 1.99574 1.99574 h -1.24747 -1.24695 v -1.99574 z m 31.57895,0 h 1.3808 1.46348 v 1.99574 1.99574 h -1.2175 -1.21801 -0.40877 v -2.36988 z"
         sodipodi:nodetypes="cccccccccccccccccccccccccccccccccccccccccccccccccccccccccccccccccccccccccccccccccccccccccccccccccccccccccccccccccccccccccccccccccccsccccccccccccscccccccccccccccccccccccccccccccccccccccccccccccccccccccccccccccccccccccccccccccccccccsscccccsccccccccccccccccccsccccsccccccccccccccccccc"
         transform="matrix(0.19832414,0,0,0.19832414,32.797565,110.43829)" /><path
         id="path40"
         style="baseline-shift:baseline;display:inline;overflow:visible;vector-effect:none;fill:#cf8614;enable-background:accumulate;stop-color:#000000;stop-opacity:1"
         d="m 68.344625,165.23868 h 19.909294 v 6.21924 H 68.344625 Z"
         transform="matrix(0.19832414,0,0,0.19832414,32.797565,110.43829)" /><path
         id="path41"
         style="baseline-shift:baseline;display:inline;overflow:visible;vector-effect:none;fill:#cf8614;enable-background:accumulate;stop-color:#000000;stop-opacity:1"
         d="m 141.69279,164.02496 h 13.74907 v 7.45988 h -13.74907 z"
         transform="matrix(0.19832414,0,0,0.19832414,32.797565,110.43829)" /><path
         d="m 48.041002,140.46002 0.01855,-0.84466 -0.09326,-0.13314 -0.09326,-0.13314 h 0.09326 0.09326 v -0.89562 -0.89562 l -0.09034,-0.0506 -0.09034,-0.0506 0.418639,-0.77614 0.418638,-0.77613 0.0012,-0.1947 0.0012,-0.19469 h -0.109828 -0.109829 v -0.0899 -0.0899 h 0.139792 0.139782 l 1.42e-4,0.28455 1.42e-4,0.28456 0.442687,0.78983 0.442687,0.78984 -0.08339,0.032 -0.08339,0.032 v 0.60283 h 1.198129 1.198128 v -0.29656 -0.29655 l -0.08412,-0.0479 -0.08412,-0.0479 0.458536,-0.85501 0.458536,-0.85501 0.454661,0.94105 0.05494,0.71631 0.270547,0.0974 -0.09122,0.0511 v 0.89562 3.29615 2.15236 l -1.659233,-0.49163 -0.137959,0.49163 -8.93e-4,-0.97348 -8.92e-4,-0.97348 -0.074,-0.14399 -0.074,-0.14399 -0.157899,-0.1172 -0.157899,-0.1172 -0.278742,-0.0314 -0.318097,-1.52035 -0.292617,0.0893 -0.12208,1.60442 -0.10014,0.16953 -0.10014,0.16952 v 0.99419 0.99419 l -0.249268,-0.0278 0.01046,-3.35793 z m 0.617616,-2.63856 v -0.0899 h -0.08986 -0.08986 v 0.0899 0.0899 h 0.08986 0.08986 z m 0.433374,-0.004 v -0.0899 h -0.08986 -0.08986 v 0.0899 0.0899 h 0.08986 0.08986 z m 3.427148,0.0169 v -0.0899 h -0.08986 -0.08986 v 0.0899 0.0899 h 0.08986 0.08986 z m 0.433374,-0.004 v -0.0899 h -0.08986 -0.08986 v 0.0899 0.0899 h 0.08986 0.08986 z m -0.340705,-1.91753 0.0012,-0.19469 0.0012,-0.1947 h -0.109828 -0.109828 v -0.0899 -0.0899 h 0.139791 0.139782 l 1.42e-4,0.28455 1.42e-4,0.28455"
         style="display:inline;fill:#eb9c22;fill-opacity:1;stroke-width:0.226419"
         id="path1-6"
         sodipodi:nodetypes="cccccccccccccccccccccccccccccccccccccccccccccccccccccccccccccccccccccccccccccccccccccccccccccccccccccccccccc" /><path
         style="display:inline;fill:#cf8614;fill-opacity:1;stroke-width:0.0198324;stroke-linecap:round;stroke-linejoin:round"
         d="m 47.708123,139.35075 h 0.44525 0.0629 l 0.172842,-1.04727 -0.01312,1.04727 h 0.528735 l 0.180087,-1.04727 -0.01312,1.04727 h 0.361766 0.02783 v -1.16879 l 0.273263,0.72609 h 1.850953 l 0.306109,-0.74464 v 1.39141 h 0.315386 l 0.09276,-1.02964 v 1.02964 h 0.565841 v 1.85521 l -2.095269,-0.0478 -0.432866,-1.9235 -0.400461,1.9045 -2.107319,-0.0481 0.02844,-0.85176 z"
         id="path16"
         sodipodi:nodetypes="cccccccccccccccccccccccccc" /><path
         style="display:inline;fill:#cf8614;fill-opacity:1;stroke-width:0.0198324;stroke-linecap:round;stroke-linejoin:round"
         d="m 49.841615,139.07246 0.514821,-0.73745 v -0.18088 h 0.0974 v 0.17161 h 0.06029 l 0.468441,0.6354 z"
         id="path17" /><path
         style="font-variation-settings:normal;display:inline;vector-effect:none;fill:#cf8614;fill-opacity:1;stroke-width:0.376443;stroke-linecap:butt;stroke-linejoin:miter;stroke-miterlimit:4;stroke-dasharray:none;stroke-dashoffset:0;stroke-opacity:1;-inkscape-stroke:none"
         d="m 52.784441,136.0647 -0.1637,0.84186 -0.01254,1.28255 -0.118861,1.45396 0.327572,-0.0627 0.120588,-3.19602 z"
         id="path18"
         sodipodi:nodetypes="ccccccc" /><path
         id="rect20"
         style="baseline-shift:baseline;display:inline;overflow:visible;vector-effect:none;fill:#cf8614;stroke-width:0.198324;enable-background:accumulate;stop-color:#000000"
         d="m 53.069681,134.34167 h 2.216976 v 6.35409 h -2.216976 z" /><path
         id="path1-8"
         style="display:inline;fill:#eb9c22;fill-opacity:1;stroke-width:0.360674"
         d="m 54.267267,125.18537 c 0.0077,0.0394 -0.01012,0.072 -0.05022,0.0735 -0.0401,0.002 -0.008,-0.13173 -0.05148,-0.13091 -0.04348,8.1e-4 -0.08451,0.0432 -0.08009,0.0692 0.0044,0.026 0.03069,0.009 0.05213,0.0401 0.02144,0.0314 0.02237,0.1267 0.0567,0.15123 0.03434,0.0245 0.09251,0.0128 0.09251,0.0128 0,0 0.06806,-7.9e-4 0.111432,-0.10271 0.04337,-0.10192 0.01541,-0.163 -0.01994,-0.20457 -0.03536,-0.0416 -0.169265,-0.004 -0.169265,-0.004 0,0 0.0505,0.0558 0.05823,0.0952 z m -0.208416,1.13944 c -0.02884,0.13309 -0.04542,0.22151 -0.11581,0.38166 h 0.592989 c -0.08159,-0.14754 -0.104378,-0.25517 -0.115913,-0.38166 z m -0.07225,0.85884 c -0.150027,0.17585 -0.237894,0.33698 -0.232285,0.49966 0.0056,0.16268 0.152502,0.30679 0.194262,0.34698 0,0 -0.0075,0.11473 -0.03668,0.2184 -0.02914,0.10366 -0.147997,0.334 -0.147997,0.334 l 0.481483,-0.005 0.481484,-0.006 c -0.135977,-0.19499 -0.189953,-0.32595 -0.204052,-0.54144 0,0 0.228153,-0.2183 0.194775,-0.37499 -0.03338,-0.15668 -0.06863,-0.31599 -0.228186,-0.47165 h -0.2514 z m -0.605824,1.80769 -0.312414,0.93106 -0.0035,1.2369 v 2.31529 l -0.06473,-0.20989 -0.07794,0.20989 v 2.16012 l -0.203026,1.35201 -0.01045,1.31429 -0.115195,1.46884 0.01599,4.5909 h 1.163093 v -1.00519 c 0,0 0.05283,-0.35864 0.419581,-0.36168 0.366754,-0.003 0.439259,0.36168 0.439259,0.36168 v 1.00519 l 0.553866,-1.03892 0.681408,-3.55198 -0.07604,-1.46884 -0.01015,-1.25393 -0.245252,-1.39925 v -2.17324 l -0.06309,-0.20989 -0.07076,0.20989 v -2.31529 l -0.0066,-1.2369 -0.09605,-0.30669 -0.08644,0.30669 c -0.292223,-0.16541 -0.390066,-0.42506 -0.390066,-0.73473 h -0.572594 -0.572491 c -0.0076,0.24485 -0.01451,0.30428 -0.07362,0.46109 z m 1.073425,1.92315 v 1.37059 h -0.381448 v -1.37059 c 0,0 0.03019,-0.19218 0.19141,-0.19218 0.161214,0 0.190038,0.19218 0.190038,0.19218 z m -0.192268,1.43794 c 0.100786,0 0.182489,0.0817 0.182487,0.18249 2e-6,0.10078 -0.0817,0.18249 -0.182487,0.18248 -0.100786,1e-5 -0.182489,-0.0817 -0.182488,-0.18248 -10e-7,-0.10079 0.0817,-0.18249 0.182488,-0.18249 z m 0.192268,0.46956 v 0.42752 h -0.381448 v -0.42752 z m 0.534208,1.71591 c 0.170587,0 0.19083,0.17053 0.19083,0.17053 v 2.57652 h -0.381765 v -2.57652 c 0,0 0.02035,-0.17053 0.190932,-0.17053 z m -0.728067,0.0101 c 0.170586,0 0.190831,0.17054 0.190831,0.17054 v 2.57662 h -0.381661 v -2.57662 c 0,0 0.02024,-0.17054 0.19083,-0.17054 z m -0.774083,0.004 c 0.170585,0 0.190933,0.17054 0.190933,0.17054 v 2.57662 H 53.29543 v -2.57662 c 0,0 0.02025,-0.17054 0.19083,-0.17054 z m 0.220039,3.80216 c 0.230603,-0.004 0.25714,0.1855 0.25714,0.1855 v 1.33602 H 53.48626 v -1.33602 c 0,0 -0.01056,-0.1817 0.220039,-0.1855 z m 0.995967,0.004 c 0.230603,-0.004 0.257139,0.1855 0.257139,0.1855 v 1.33602 h -0.477074 v -1.33602 c 0,0 -0.01067,-0.18169 0.219935,-0.1855 z m -0.482713,1.77036 c 0.337827,-0.002 0.414458,0.26995 0.414458,0.26995 v 1.14714 h -0.807085 v -1.14714 c 0,0 0.0548,-0.26816 0.392627,-0.26995 z m 0.897752,-9.21176 v 2.3151 h -0.381449 v -2.3151 c 0,0 0.03019,-0.19219 0.191411,-0.19219 0.161214,0 0.190038,0.19219 0.190038,0.19219 z m -1.368897,7.9e-4 v 2.31511 h -0.381449 v -2.31511 c 0,0 0.03019,-0.19218 0.191411,-0.19218 0.161213,0 0.190038,0.19218 0.190038,0.19218 z"
         sodipodi:nodetypes="zzzzzzczzczcccccczczcccczccccccccccccccccsccccccccccccccccccccccczcssssscccccsccccssccccssccccssccccssccccssccccsccccscccccsc" /><path
         style="display:inline;fill:#eb9c22;stroke-width:0.198324"
         d="m 54.204697,125.35328 v 0.24596 l -0.05152,0.10304 c 0,0 -0.04934,0.0971 -0.108071,0.16036 -0.02776,0.0299 -0.06162,0.0509 -0.09296,0.086 -0.03134,0.0351 -0.05557,0.0854 -0.0581,0.1592 -0.0023,0.0665 0.01051,0.11744 0.04028,0.16114 0.02613,0.0383 0.06658,0.0734 0.113881,0.11659 l -0.0612,0.28548 v 0.65346 h 0.07631 v -0.64533 l 0.06895,-0.31879 -0.01627,-0.0151 c -0.05832,-0.0537 -0.097,-0.0883 -0.118142,-0.1193 -0.02114,-0.031 -0.02906,-0.0587 -0.02712,-0.11543 0.0021,-0.06 0.01667,-0.0861 0.03874,-0.11078 0.02206,-0.0247 0.05642,-0.0471 0.0918,-0.0852 0.07014,-0.0756 0.120466,-0.1778 0.120466,-0.1778 l 0.05965,-0.1193 v -0.26417 z"
         id="path23" /><path
         style="display:inline;fill:#eb9c22;stroke-width:0.198324"
         d="m 53.874286,128.51058 c -0.02865,0.002 -0.05344,0.0142 -0.0705,0.0306 -0.01706,0.0164 -0.02722,0.0358 -0.03409,0.0535 -0.01373,0.0354 -0.01472,0.0686 -0.01472,0.0686 v 7.7e-4 0.58064 h 0.0767 v -0.57986 c 9.8e-5,-0.002 0.0013,-0.0216 0.0093,-0.0422 0.0041,-0.0107 0.0099,-0.0202 0.01588,-0.0259 0.0059,-0.006 0.01124,-0.009 0.02169,-0.01 0.01649,-8e-4 0.02365,0.003 0.02983,0.008 0.0062,0.005 0.01163,0.0132 0.0155,0.0236 0.0077,0.0208 0.0074,0.0449 0.0074,0.0449 v 7.8e-4 0.63719 h 0.252941 v -0.63138 c 4.76e-4,-0.002 0.0048,-0.0245 0.01666,-0.0469 0.0062,-0.0118 0.01424,-0.0223 0.02169,-0.0283 0.0075,-0.006 0.01296,-0.008 0.02285,-0.008 l 0.0027,3.9e-4 0.0023,-3.9e-4 c 0.0043,-3e-4 0.0071,7.1e-4 0.01356,0.007 0.0065,0.006 0.0143,0.0168 0.02053,0.0291 0.01197,0.0235 0.01734,0.0469 0.01782,0.0488 v 0.62518 h 0.252553 v -0.62867 c 0,0 0.0023,-0.0239 0.01162,-0.0461 0.0047,-0.0111 0.01089,-0.0207 0.01704,-0.0263 0.0061,-0.006 0.01099,-0.009 0.02131,-0.009 0.01033,0 0.01515,0.003 0.0213,0.009 0.0061,0.006 0.01238,0.0152 0.01704,0.0263 0.0093,0.0222 0.01162,0.0461 0.01162,0.0461 v 0.58606 h 0.07631 v -0.59071 -0.002 c 0,0 -0.0024,-0.0339 -0.01743,-0.0697 -0.0075,-0.0179 -0.01827,-0.0373 -0.03602,-0.0534 -0.01777,-0.0161 -0.04373,-0.0279 -0.07282,-0.0279 -0.02909,0 -0.05506,0.0117 -0.07282,0.0279 -0.01777,0.0162 -0.02851,0.0356 -0.03602,0.0534 -0.01503,0.0358 -0.01743,0.0697 -0.01743,0.0697 v 0.002 0.55702 h -0.09994 v -0.55972 l -7.93e-4,-0.004 c 0,0 -0.0075,-0.0339 -0.02518,-0.0686 -0.0088,-0.0173 -0.02018,-0.0357 -0.03719,-0.0511 -0.01645,-0.0149 -0.0411,-0.0262 -0.06817,-0.0252 -0.02829,-8.2e-4 -0.05443,0.009 -0.07282,0.0236 -0.01907,0.0153 -0.03163,0.0345 -0.04106,0.0523 -0.01886,0.0356 -0.02518,0.0701 -0.02518,0.0701 l -7.73e-4,0.004 v 0.5636 h -0.09955 v -0.56011 l -3.96e-4,0.002 c 0,0 0.0023,-0.0364 -0.01201,-0.0748 -0.0071,-0.0192 -0.01878,-0.0402 -0.03912,-0.0566 -0.02035,-0.0163 -0.04914,-0.0259 -0.08134,-0.0244 h -3.97e-4 z"
         id="path24" /><path
         style="display:inline;fill:#eb9c22;stroke-width:0.198324"
         d="m 54.330199,125.71196 -0.06856,0.0345 c 0,0 0.05032,0.10221 0.120466,0.17779 0.03538,0.0381 0.06974,0.0605 0.0918,0.0852 0.02206,0.0247 0.03667,0.0507 0.03873,0.11078 0.002,0.0567 -0.006,0.0844 -0.02711,0.11543 -0.02114,0.031 -0.05983,0.0657 -0.118142,0.11931 l -0.01627,0.0147 0.06895,0.31917 v 0.64495 h 0.07631 v -0.65308 l -0.06159,-0.28509 c 0.04753,-0.0434 0.08767,-0.0785 0.113882,-0.11698 0.02977,-0.0437 0.04295,-0.0947 0.04067,-0.16114 -0.0025,-0.0738 -0.02676,-0.12411 -0.0581,-0.1592 -0.03134,-0.0351 -0.0652,-0.0561 -0.09296,-0.086 -0.05873,-0.0633 -0.10807,-0.16037 -0.10807,-0.16037 z"
         id="path1-0" /><path
         id="path25"
         style="baseline-shift:baseline;display:inline;overflow:visible;vector-effect:none;fill:#eb9c22;stroke-width:0.198324;enable-background:accumulate;stop-color:#000000"
         d="m 54.35905,125.68712 a 0.12058864,0.12058864 0 0 1 -0.120588,0.12059 0.12058864,0.12058864 0 0 1 -0.120589,-0.12059 0.12058864,0.12058864 0 0 1 0.120589,-0.12059 0.12058864,0.12058864 0 0 1 0.120588,0.12059 z" /><path
         style="display:inline;fill:#eb9c22;stroke-width:0.198324"
         d="m 54.201598,125.71158 c 0,0 -0.0011,0.083 -0.01821,0.13983 -0.0053,0.0175 -0.03255,0.0472 -0.06391,0.0887 -0.03136,0.0415 -0.06359,0.0989 -0.06546,0.17741 -0.0037,0.15705 0.108458,0.2758 0.108458,0.2758 l 0.05655,-0.0515 c 0,0 -0.09114,-0.1043 -0.08832,-0.22273 0.0014,-0.0593 0.02311,-0.0969 0.04997,-0.13247 0.02685,-0.0356 0.06189,-0.0651 0.07631,-0.11311 0.0223,-0.0743 0.0213,-0.16191 0.0213,-0.16191 z"
         id="path26" /><path
         style="display:inline;fill:#eb9c22;stroke-width:0.198324"
         d="m 54.193851,125.69841 c 0,0 -9.91e-4,0.0876 0.0213,0.16191 0.01441,0.048 0.04945,0.0776 0.07631,0.11311 0.02686,0.0356 0.04856,0.0732 0.04997,0.13247 0.0028,0.11843 -0.08832,0.22273 -0.08832,0.22273 l 0.05655,0.0515 c 0,0 0.112198,-0.11874 0.108458,-0.27579 -0.0018,-0.0785 -0.0341,-0.1355 -0.06546,-0.17702 -0.03136,-0.0415 -0.05904,-0.0715 -0.0643,-0.0891 -0.01705,-0.0569 -0.01782,-0.13983 -0.01782,-0.13983 z"
         id="path15-5" /><path
         id="path27"
         style="display:inline;fill:#cf8614;fill-opacity:1;stroke-width:0.373952;-inkscape-stroke:none"
         d="m 55.786063,138.04828 c 0,0 -0.02941,-0.10804 -0.08667,-0.16915 -0.05726,-0.0611 -0.177042,-0.0457 -0.222605,0.0291 -0.04556,0.0749 -0.03629,0.1789 -0.03246,0.36649 l -0.484925,0.70922 v 0.89564 h -0.477074 v -0.25223 l -0.336671,0.41006 -0.006,0.0995 c 0.02544,-0.004 0.05029,-0.008 0.07994,-0.009 0.337827,-0.002 0.414458,0.26995 0.414458,0.26995 v 0.93376 l 0.928736,0.0221 0.303975,-1.58445 -0.07604,-1.46884 z m -1.902464,2.23431 h -0.0701 l -0.01085,0.40466 h -0.103936 v -0.40466 h -0.564087 l -0.0014,0.40466 h -0.162608 v -0.40466 h -0.375306 l 0.0034,1.0012 1.228203,0.0292 v -0.91459 c 0,0 0.01292,-0.0554 0.05667,-0.11581 z"
         sodipodi:nodetypes="czzcccccccsccccccccccccccccccccc" /><path
         style="font-variation-settings:normal;display:inline;vector-effect:none;fill:#cf8614;fill-opacity:1;stroke-width:0.373952;stroke-linecap:butt;stroke-linejoin:miter;stroke-miterlimit:4;stroke-dasharray:none;stroke-dashoffset:0;stroke-opacity:1;-inkscape-stroke:none"
         d="m 58.630672,144.43865 -0.538012,0.005 v -0.6957 c 0,0 -0.0064,-0.34997 -0.142248,-0.49452 -0.297798,-0.31679 -0.538385,-0.44805 -1.185967,-0.45268 -0.800616,-0.006 -0.967607,0.0799 -0.967607,0.0799 l 0.551926,-0.26436 1.563014,0.0278 0.681789,0.34322 -0.06957,0.70498 z"
         id="path37"
         sodipodi:nodetypes="cccsscccccc" /><path
         id="path1-4"
         style="font-variation-settings:normal;display:inline;vector-effect:none;fill:#eb9c22;fill-opacity:1;stroke-width:0.373952;stroke-linecap:butt;stroke-linejoin:miter;stroke-miterlimit:4;stroke-dasharray:none;stroke-dashoffset:0;stroke-opacity:1;-inkscape-stroke:none;stop-color:#000000"
         d="m 62.507568,136.54295 v 0.0899 0.0899 h 0.109868 0.109763 l -0.0012,0.19462 -9.92e-4,0.15701 h -0.03126 l -0.915936,2.11297 -0.27528,-0.38155 h -0.04069 v -0.24249 c 0.02749,-0.008 0.04632,-0.0335 0.04632,-0.0622 4.6e-5,-0.0287 -0.0188,-0.0541 -0.04632,-0.0623 v -0.12329 h -0.0371 v 0.12339 c -0.02753,0.008 -0.04641,0.0335 -0.04642,0.0622 1.2e-5,0.0287 0.0189,0.054 0.04642,0.0622 v 0.24249 h -1.351698 v -0.2183 c 0.02749,-0.008 0.04632,-0.0335 0.04632,-0.0622 4.6e-5,-0.0287 -0.0188,-0.0541 -0.04632,-0.0623 v -0.12329 h -0.0371 v 0.12339 c -0.02753,0.008 -0.04641,0.0335 -0.04643,0.0622 1.4e-5,0.0287 0.0189,0.054 0.04643,0.0622 v 0.2183 h -0.04909 l -0.699063,1.28631 -1.118542,-1.63241 h -0.172177 v -0.26052 c 0.02749,-0.008 0.04632,-0.0335 0.04632,-0.0622 4.6e-5,-0.0287 -0.0188,-0.0541 -0.04632,-0.0623 v -0.12329 h -0.0371 v 0.1234 c -0.02753,0.008 -0.04641,0.0335 -0.04643,0.0622 1.4e-5,0.0287 0.0189,0.054 0.04643,0.0622 v 0.26047 l -2.336187,-2e-4 v -0.28471 c 0.02749,-0.008 0.04632,-0.0335 0.04632,-0.0622 4.5e-5,-0.0287 -0.0188,-0.0541 -0.04632,-0.0623 v -0.12329 h -0.0371 v 0.12339 c -0.02753,0.008 -0.04641,0.0335 -0.04643,0.0622 1.4e-5,0.0287 0.0189,0.054 0.04643,0.0622 v 0.28471 h -0.133235 l -1.192433,1.74381 v 0.23511 h -0.44879 v 0.2968 H 53.56841 v -0.2968 h -0.395702 v 0.2968 h -0.296904 v -0.2968 h -0.395702 v 0.2968 H 52.2822 v -0.2968 h -0.374589 v 0.2968 h -0.318017 v -0.2968 h -0.197902 v -0.42799 -0.42798 l -0.906804,-1.16784 h -0.0064 l -1.03e-4,-0.26216 -1.98e-4,-0.28461 h -0.139792 -0.139792 v 0.0899 0.0899 h 0.109866 0.109866 l -0.0012,0.19462 -0.0011,0.17238 h -0.01373 l -0.890406,1.21826 v 0.20487 0.20487 h -0.099 -0.118578 v 0.14256 0.1688 h -0.161424 -0.105562 v -0.10351 -0.20785 h -0.239306 -0.186322 v 0.19791 0.11345 h -0.163952 -0.108226 v -0.11345 -0.19791 h -0.121652 -0.09367 v -0.1939 -0.1939 L 47.33213,138.45478 H 47.2689 l -1.03e-4,-0.26503 -1.02e-4,-0.28451 h -0.139792 -0.139792 v 0.0898 0.0899 h 0.109763 0.109866 l -0.0012,0.19473 -0.001,0.17515 h -0.07225 l -0.781667,1.14262 v 2.44872 2.39942 h 2.21679 2.278283 c 0,0 -0.01023,-0.19803 0,-0.3217 v -0.37111 c 0,0 0.02559,-0.16695 0.296802,-0.16695 0.271213,0 0.296802,0.16695 0.296802,0.16695 v 0.69281 h 0.191548 v -0.29701 -0.3958 c 0,0 0.0516,-0.17022 0.272717,-0.16695 0.288864,0.004 0.301209,0.16695 0.301209,0.16695 v 0.31238 0.37715 l 1.584446,0.003 h 1.558313 v -0.64588 c 0,0 0.01854,-0.3578 0.193392,-0.60283 0.259747,-0.364 0.543642,-0.50867 1.302609,-0.52001 0.641285,-0.01 1.022224,0.16904 1.276882,0.50423 0.186571,0.24566 0.186322,0.59678 0.186322,0.59678 v 0.66771 h 2.680443 2.638316 v -5.2582 l -0.806152,-2.11297 h -0.03382 l -1.98e-4,-0.24678 -1.01e-4,-0.28461 h -0.139793 z m 0.157389,2.76991 h 0.0989 0.099 v 0.2474 0.2473 h -0.099 -0.0989 v -0.2473 z m -6.227181,0.235 h 0.346304 0.346301 v 0.2473 0.24741 H 56.78408 56.437776 v -0.24741 z m -9.367605,0.48671 h 0.0989 0.0989 v 0.19791 0.1979 h -0.0989 -0.0989 v -0.1979 z m 3.172583,0.0146 h 0.0989 0.099 v 0.1979 0.1979 h -0.099 -0.0989 v -0.1979 z m 9.663382,0.47656 h 0.148401 0.148402 v 0.19791 0.1979 h -0.148402 -0.148401 v -0.1979 z m 1.181981,0.0116 h 0.0989 0.0989 v 0.1979 0.1979 h -0.0989 -0.0989 v -0.1979 z m 1.088308,0 h 0.1484 0.1484 v 0.1979 0.1979 h -0.1484 -0.1484 v -0.1979 z m 1.023434,0.009 h 0.1484 0.148402 v 0.1978 0.1979 h -0.148402 -0.1484 v -0.1979 z m -14.432403,0.0461 c 0.275794,5.9e-4 0.218897,0.10839 0.295982,0.11017 0.07731,0.002 0.06375,0.0549 0.06375,0.0549 v 0.44521 h -0.706343 v -0.44521 c 0,0 7.74e-4,-0.0559 0.05544,-0.0547 0.105397,0.002 0.01537,-0.11097 0.291166,-0.11037 z m -1.697285,0.0356 h 0.0989 0.0989 v 0.0989 0.099 h -0.0989 -0.0989 v -0.099 z m 3.172583,0.0145 h 0.0989 0.099 v 0.099 0.0989 h -0.099 -0.0989 v -0.0989 z m -1.454596,0.77572 c 0.469226,-9e-5 0.621927,0.11012 0.723762,0.40503 v 1.38521 h -1.484112 v -1.38521 c 0.125965,-0.3225 0.291124,-0.40494 0.76035,-0.40503 z m 4.582494,0.70183 h 0.247301 0.247403 v 0.3958 0.39581 h -0.247403 -0.247301 v -0.39581 z m 6.262867,0 h 0.273846 0.290245 v 0.3958 0.39581 h -0.241461 -0.241561 -0.08107 v -0.47001 z"
         sodipodi:nodetypes="cccccccccccccccccccccccccccccccccccccccccccccccccccccccccccccccccccccccccccccccccccccccccccccccccccccccccccccccccccccccccccccccccccsccccccccccccscccccccccccccccccccccccccccccccccccccccccccccccccccccccccccccccccccccccccccccccccccccsscccccsccccccccccccccccccsccccsccccccccccccccccccc" /><path
         id="rect8"
         style="baseline-shift:baseline;display:inline;overflow:visible;vector-effect:none;fill:#cf8614;stroke-width:0.198324;enable-background:accumulate;stop-color:#000000"
         d="m 46.351955,143.20911 h 3.948494 v 1.23342 h -3.948494 z" /><path
         id="rect9"
         style="baseline-shift:baseline;display:inline;overflow:visible;vector-effect:none;fill:#cf8614;stroke-width:0.198324;enable-background:accumulate;stop-color:#000000"
         d="m 60.898668,142.9684 h 2.72677 v 1.47947 h -2.72677 z" /></g><path
       style="-inkscape-font-specification:'The Bystander Collection';display:inline;fill:#eb9c22;stroke-width:0.561028;stroke-linecap:round;stroke-linejoin:round"
       d="m 33.822881,139.71142 v -10.76669 h 1.820837 v 9.10414 h 2.89751 v 1.66255 z m 8.280867,0.1583 q -1.583338,0 -2.422506,-1.2667 -0.823339,-1.26663 -0.823339,-4.27499 0,-2.0583 0.411655,-3.30916 0.411649,-1.2667 1.092501,-1.74167 0.696666,-0.49107 1.741673,-0.49107 1.583337,0 2.390839,1.25086 0.823337,1.25081 0.823337,4.29083 0,1.55166 -0.221653,2.64416 -0.221655,1.09251 -0.665002,1.72587 -0.427494,0.61748 -0.997501,0.90244 -0.570006,0.26927 -1.330004,0.26927 z m 0,-1.66251 q 1.393336,0 1.393336,-3.87918 0,-3.87917 -1.393336,-3.87917 -1.425002,0 -1.425002,3.87917 0,3.87918 1.425002,3.87918 z m 4.560022,1.50421 V 128.9447 h 2.739176 q 2.881676,0 2.881676,2.59665 0,1.55167 -1.361671,2.8342 l 1.361671,5.33587 h -1.820843 l -1.0925,-4.2592 q -0.411651,0.23761 -0.886669,0.39604 v 3.86338 z m 1.82084,-5.65256 q 0.918336,-0.39604 1.456668,-1.02915 0.538325,-0.63336 0.538325,-1.4092 0,-1.01328 -1.076667,-1.01328 h -0.918339 z m 8.075032,5.81086 q -1.583336,0 -2.422507,-1.2667 -0.823339,-1.26663 -0.823339,-4.27499 0,-2.0583 0.411651,-3.30916 0.411653,-1.2667 1.092507,-1.74167 0.696669,-0.49107 1.741673,-0.49107 2.707512,0 2.960844,3.60999 l -1.820842,0.0157 q -0.06332,-0.96583 -0.380025,-1.45666 -0.300805,-0.50694 -0.759999,-0.50694 -1.42501,0 -1.42501,3.87918 0,3.87918 1.42501,3.87918 0.459176,0 0.775836,-0.55388 0.31666,-0.55446 0.364184,-1.56752 h 1.836669 q -0.158364,3.78419 -2.976674,3.78419 z m 3.926671,-0.1583 1.900002,-10.76669 h 2.770844 l 1.900006,10.76669 h -1.82084 l -0.316659,-1.78916 h -2.295842 l -0.31666,1.78916 z m 2.422504,-3.45168 h 1.725843 l -0.855002,-5.13004 z m 5.415022,3.45168 v -10.76669 h 1.646674 l 1.915838,5.14581 1.947507,-5.14581 h 1.615003 v 10.76669 h -1.820837 v -6.0959 l -1.377506,3.87918 h -0.696665 l -1.409174,-3.83166 v 6.04838 z m 8.961699,0 v -10.76669 h 4.71835 v 1.6625 h -2.897517 v 2.80246 h 2.264175 v 1.66251 h -2.264175 v 2.97667 h 2.897517 v 1.66255 z m 6.301699,0 v -10.76669 h 2.739177 q 2.881678,0 2.881678,2.59662 0,1.55167 -1.361678,2.83424 l 1.361678,5.33583 h -1.82084 l -1.092504,-4.2592 q -0.41165,0.23761 -0.886675,0.39604 v 3.86341 z m 1.820836,-5.65256 q 0.918341,-0.39604 1.456677,-1.02913 0.53833,-0.63338 0.53833,-1.40922 0,-1.01328 -1.076666,-1.01328 h -0.918341 z m 7.663356,5.81086 q -1.155843,0 -1.931669,-0.68082 -0.775827,-0.69669 -0.775827,-1.88417 v -0.83916 h 1.773328 v 0.52221 q 0,0.60167 0.269212,0.91834 0.285032,0.30094 0.66499,0.30094 0.443339,0 0.744168,-0.30094 0.300835,-0.30093 0.300835,-0.95003 0,-0.20595 -0.06323,-0.36435 -0.04752,-0.17428 -0.110904,-0.30093 -0.06323,-0.12664 -0.269145,-0.31682 -0.189991,-0.20594 -0.332503,-0.31682 -0.126666,-0.12664 -0.50664,-0.42773 -0.364186,-0.30093 -0.601681,-0.50694 -0.506648,-0.44356 -0.728332,-0.64917 -0.221656,-0.20594 -0.570006,-0.63329 -0.332502,-0.42773 -0.475014,-0.87085 -0.142505,-0.44355 -0.142505,-0.99749 0,-1.37754 0.759998,-2.10585 0.775843,-0.74415 2.042514,-0.74415 2.565,0 2.755008,2.58079 0.03166,0.53808 0.03166,0.88669 h -1.789171 q 0,-0.14265 -0.01595,-0.38018 0,-0.2536 0,-0.36438 -0.110912,-1.06081 -0.965835,-1.06081 -0.427494,0 -0.712501,0.30093 -0.285032,0.30093 -0.285032,0.94997 0,0.50694 0.348341,0.95005 0.364177,0.44357 1.108337,1.02913 0.538332,0.42771 0.855006,0.69668 0.316657,0.26927 0.712501,0.71251 0.395861,0.44357 0.585827,0.95001 0.19,0.49107 0.19,1.045 0,1.36164 -0.791672,2.10586 -0.775836,0.74414 -2.074173,0.74414 z m 4.290869,-0.1583 V 128.9447 h 4.718332 v 1.66253 h -2.897492 v 2.80246 h 2.264182 v 1.66248 h -2.264182 v 4.63925 z m 8.676692,0.1583 q -1.58333,0 -2.42251,-1.26667 -0.82334,-1.26666 -0.82334,-4.27498 0,-2.05834 0.41166,-3.3092 0.41165,-1.2667 1.09251,-1.74164 0.69667,-0.49107 1.74167,-0.49107 1.58332,0 2.39083,1.25083 0.82335,1.25081 0.82335,4.29083 0,1.55166 -0.22167,2.64416 -0.22165,1.09251 -0.66499,1.72587 -0.4275,0.61751 -0.9975,0.90248 -0.57001,0.26927 -1.33001,0.26927 z m 0,-1.66248 q 1.39333,0 1.39333,-3.87917 0,-3.87918 -1.39333,-3.87918 -1.425,0 -1.425,3.87918 0,3.87917 1.425,3.87917 z m 7.48922,1.66248 q -1.58334,0 -2.4225,-1.26667 -0.82335,-1.26666 -0.82335,-4.27498 0,-2.05834 0.41166,-3.3092 0.41166,-1.2667 1.09251,-1.74164 0.69666,-0.49107 1.74167,-0.49107 1.58334,0 2.39083,1.25083 0.82335,1.25081 0.82335,4.29083 0,1.55166 -0.22166,2.64416 -0.22164,1.09251 -0.66501,1.72587 -0.42749,0.61751 -0.9975,0.90248 -0.57,0.26927 -1.33,0.26927 z m 0,-1.66248 q 1.39334,0 1.39334,-3.87917 0,-3.87918 -1.39334,-3.87918 -1.42502,0 -1.42502,3.87918 0,3.87917 1.42502,3.87917 z m 4.56001,1.50418 v -10.76669 h 2.73918 q 2.88168,0 2.88168,2.59662 0,1.55167 -1.36168,2.83424 l 1.36168,5.33583 h -1.82086 l -1.09249,-4.2592 q -0.41165,0.23761 -0.88667,0.39604 v 3.86341 z m 1.82084,-5.65256 q 0.91835,-0.39604 1.45668,-1.02913 0.53833,-0.63338 0.53833,-1.40922 0,-1.01328 -1.07668,-1.01328 h -0.91834 z m 6.38086,5.65256 v -9.10419 h -1.78917 v -1.6625 h 5.38334 v 1.6625 h -1.77335 v 9.10419 z"
       id="text12"
       aria-label="LORCAMERSFOORT" /></g></svg>
